<?xml version="1.0" encoding="UTF-8"?>
<svg xmlns="http://www.w3.org/2000/svg" xmlns:xlink="http://www.w3.org/1999/xlink" width="50px" height="50px" viewBox="0 0 50 50" version="1.1">
<g id="surface1">
<path style=" stroke:none;fill-rule:nonzero;fill:rgb(0.784314%,17.647059%,26.666667%);fill-opacity:1;" d="M 24.851562 3.710938 L 25.734375 3.734375 L 25.78125 3.757812 L 27.050781 3.832031 L 27.390625 3.882812 L 28.34375 4.003906 L 29.222656 4.148438 L 30.125 4.34375 L 30.859375 4.539062 L 31.6875 4.785156 L 32.496094 5.054688 L 33.277344 5.347656 L 33.960938 5.640625 L 34.839844 6.054688 L 35.71875 6.519531 L 36.253906 6.8125 L 36.570312 7.007812 L 36.988281 7.273438 L 37.523438 7.617188 L 37.867188 7.859375 L 38.304688 8.179688 L 38.625 8.421875 L 38.964844 8.714844 L 39.257812 8.9375 L 39.550781 9.203125 L 39.820312 9.421875 L 40.210938 9.8125 L 40.527344 10.109375 L 41.257812 10.839844 L 41.429688 11.035156 L 41.675781 11.304688 L 41.84375 11.523438 L 41.992188 11.644531 L 42.210938 11.9375 L 42.503906 12.28125 L 42.699219 12.523438 L 43.042969 13.039062 L 43.382812 13.523438 L 43.480469 13.695312 L 43.628906 13.867188 L 43.824219 14.183594 L 43.992188 14.453125 L 44.289062 14.964844 L 44.605469 15.550781 L 44.824219 15.96875 L 45.09375 16.527344 L 45.410156 17.210938 L 45.679688 17.894531 L 45.824219 18.261719 L 46.140625 19.1875 L 46.507812 20.484375 L 46.65625 21.117188 L 46.800781 21.828125 L 46.851562 21.949219 L 46.898438 22.3125 L 46.949219 22.535156 L 47.023438 23.167969 L 47.09375 23.875 L 47.144531 24.609375 L 47.167969 25.316406 L 47.167969 26.515625 L 47.117188 27.585938 L 47.023438 28.636719 L 46.921875 29.417969 L 46.800781 30.03125 L 46.558594 31.101562 L 46.242188 32.300781 L 46.117188 32.714844 L 45.945312 33.128906 L 45.75 33.714844 L 45.386719 34.644531 L 45.164062 35.109375 L 44.898438 35.667969 L 44.605469 36.230469 L 44.359375 36.695312 L 44.140625 37.0625 L 43.992188 37.351562 L 43.796875 37.621094 L 43.601562 37.964844 L 43.40625 38.207031 L 43.335938 38.355469 L 43.042969 38.769531 L 42.820312 39.0625 L 42.625 39.332031 L 42.382812 39.625 L 42.113281 39.964844 L 41.84375 40.28125 L 41.625 40.550781 L 41.113281 41.0625 L 40.941406 41.257812 L 40.671875 41.527344 L 40.648438 41.578125 L 40.601562 41.578125 L 40.550781 41.675781 L 40.257812 41.945312 L 40.015625 42.1875 L 39.820312 42.359375 L 39.574219 42.578125 L 39.304688 42.820312 L 39.039062 43.015625 L 38.769531 43.238281 L 38.574219 43.40625 L 37.695312 44.042969 L 37.183594 44.382812 L 36.839844 44.605469 L 36.644531 44.726562 L 36.570312 44.824219 L 36.375 44.875 L 35.839844 45.191406 L 35.398438 45.433594 L 35.203125 45.554688 L 34.765625 45.75 L 34.421875 45.921875 L 33.984375 46.117188 L 33.789062 46.214844 L 33.25 46.4375 L 32.8125 46.605469 L 32.128906 46.851562 L 31.347656 47.09375 L 31.054688 47.191406 L 29.882812 47.484375 L 29.296875 47.609375 L 28.394531 47.777344 L 27.539062 47.875 L 27.171875 47.898438 L 27.101562 47.925781 L 26.320312 47.972656 L 25.78125 48 L 25.757812 48.023438 L 24.121094 48.023438 L 23.730469 48 L 23.535156 47.972656 L 23.023438 47.925781 L 22.144531 47.851562 L 21.507812 47.777344 L 21.019531 47.679688 L 19.652344 47.386719 L 18.457031 47.046875 L 17.699219 46.800781 L 16.722656 46.4375 L 15.992188 46.117188 L 15.355469 45.824219 L 14.890625 45.605469 L 14.550781 45.410156 L 14.160156 45.214844 L 14.039062 45.117188 L 13.550781 44.847656 L 13.0625 44.554688 L 12.792969 44.382812 L 12.402344 44.117188 L 11.9375 43.773438 L 11.546875 43.507812 L 11.230469 43.238281 L 10.914062 42.992188 L 10.742188 42.820312 L 10.523438 42.652344 L 10.179688 42.359375 L 10.007812 42.1875 L 9.8125 42.015625 L 9.449219 41.675781 L 8.960938 41.1875 L 8.789062 40.992188 L 8.496094 40.671875 L 8.277344 40.40625 L 8.082031 40.1875 L 7.960938 40.0625 L 7.738281 39.796875 L 7.25 39.160156 L 7.007812 38.820312 L 6.714844 38.429688 L 6.421875 37.988281 L 6.152344 37.546875 L 5.933594 37.207031 L 5.6875 36.765625 L 5.542969 36.546875 L 5.347656 36.15625 L 4.929688 35.304688 L 4.734375 34.914062 L 4.539062 34.472656 L 4.296875 33.863281 L 4.148438 33.472656 L 3.859375 32.59375 L 3.636719 31.859375 L 3.492188 31.296875 L 3.394531 30.882812 L 3.246094 30.226562 L 3.078125 29.371094 L 2.976562 28.613281 L 2.90625 27.90625 L 2.808594 26.539062 L 2.808594 25.269531 L 2.90625 23.828125 L 3.003906 22.972656 L 3.078125 22.363281 L 3.296875 21.363281 L 3.441406 20.605469 L 3.539062 20.289062 L 3.882812 19.117188 L 4.148438 18.3125 L 4.492188 17.480469 L 4.734375 16.894531 L 5.03125 16.285156 L 5.589844 15.160156 L 5.738281 14.941406 L 5.980469 14.476562 L 6.347656 13.890625 L 6.664062 13.429688 L 6.835938 13.160156 L 7.078125 12.867188 L 7.375 12.453125 L 7.59375 12.207031 L 7.765625 11.960938 L 7.984375 11.695312 L 8.25 11.351562 L 8.617188 10.984375 L 8.789062 10.789062 L 9.472656 10.109375 L 9.644531 9.914062 L 10.277344 9.328125 L 10.59375 9.058594 L 10.789062 8.886719 L 11.230469 8.546875 L 11.523438 8.300781 L 11.988281 7.960938 L 12.257812 7.765625 L 13.28125 7.078125 L 13.597656 6.910156 L 13.914062 6.714844 L 14.429688 6.445312 L 14.671875 6.296875 L 15.28125 5.980469 L 15.917969 5.6875 L 17.015625 5.226562 L 18.140625 4.835938 L 18.703125 4.664062 L 19.554688 4.417969 L 20.335938 4.25 L 21.019531 4.101562 L 21.632812 4.003906 L 22.414062 3.90625 L 23 3.859375 L 23.195312 3.808594 L 24.171875 3.757812 Z M 24.851562 3.710938 "/>
<path style=" stroke:none;fill-rule:nonzero;fill:rgb(94.117647%,82.352941%,23.921569%);fill-opacity:1;" d="M 24.851562 3.710938 L 25.734375 3.734375 L 25.78125 3.757812 L 27.050781 3.832031 L 27.390625 3.882812 L 28.34375 4.003906 L 29.222656 4.148438 L 30.125 4.34375 L 30.859375 4.539062 L 31.6875 4.785156 L 32.496094 5.054688 L 33.277344 5.347656 L 33.960938 5.640625 L 34.839844 6.054688 L 35.71875 6.519531 L 36.253906 6.8125 L 36.570312 7.007812 L 36.988281 7.273438 L 37.523438 7.617188 L 37.867188 7.859375 L 38.304688 8.179688 L 38.625 8.421875 L 38.964844 8.714844 L 39.257812 8.9375 L 39.550781 9.203125 L 39.820312 9.421875 L 40.210938 9.8125 L 40.527344 10.109375 L 41.257812 10.839844 L 41.429688 11.035156 L 41.675781 11.304688 L 41.84375 11.523438 L 41.992188 11.644531 L 42.210938 11.9375 L 42.503906 12.28125 L 42.699219 12.523438 L 43.042969 13.039062 L 43.382812 13.523438 L 43.480469 13.695312 L 43.628906 13.867188 L 43.824219 14.183594 L 43.992188 14.453125 L 44.289062 14.964844 L 44.605469 15.550781 L 44.824219 15.96875 L 45.09375 16.527344 L 45.410156 17.210938 L 45.679688 17.894531 L 45.824219 18.261719 L 46.140625 19.1875 L 46.507812 20.484375 L 46.65625 21.117188 L 46.800781 21.828125 L 46.851562 21.949219 L 46.898438 22.3125 L 46.949219 22.535156 L 47.023438 23.167969 L 47.09375 23.875 L 47.144531 24.609375 L 47.167969 25.316406 L 47.167969 26.515625 L 47.117188 27.585938 L 47.023438 28.636719 L 46.921875 29.417969 L 46.800781 30.03125 L 46.558594 31.101562 L 46.242188 32.300781 L 46.117188 32.714844 L 45.945312 33.128906 L 45.75 33.714844 L 45.386719 34.644531 L 45.164062 35.109375 L 44.898438 35.667969 L 44.605469 36.230469 L 44.359375 36.695312 L 44.140625 37.0625 L 43.992188 37.351562 L 43.796875 37.621094 L 43.601562 37.964844 L 43.40625 38.207031 L 43.335938 38.355469 L 43.042969 38.769531 L 42.820312 39.0625 L 42.625 39.332031 L 42.382812 39.625 L 42.113281 39.964844 L 41.84375 40.28125 L 41.625 40.550781 L 41.113281 41.0625 L 40.941406 41.257812 L 40.671875 41.527344 L 40.648438 41.578125 L 40.601562 41.578125 L 40.550781 41.675781 L 40.257812 41.945312 L 40.015625 42.1875 L 39.820312 42.359375 L 39.574219 42.578125 L 39.304688 42.820312 L 39.039062 43.015625 L 38.769531 43.238281 L 38.574219 43.40625 L 37.695312 44.042969 L 37.183594 44.382812 L 36.839844 44.605469 L 36.644531 44.726562 L 36.570312 44.824219 L 36.375 44.875 L 35.839844 45.191406 L 35.398438 45.433594 L 35.203125 45.554688 L 34.765625 45.75 L 34.421875 45.921875 L 33.984375 46.117188 L 33.789062 46.214844 L 33.25 46.4375 L 32.8125 46.605469 L 32.128906 46.851562 L 31.347656 47.09375 L 31.054688 47.191406 L 29.882812 47.484375 L 29.296875 47.609375 L 28.394531 47.777344 L 27.539062 47.875 L 27.171875 47.898438 L 27.101562 47.925781 L 26.320312 47.972656 L 25.78125 48 L 25.757812 48.023438 L 24.121094 48.023438 L 23.730469 48 L 23.535156 47.972656 L 23.023438 47.925781 L 22.144531 47.851562 L 21.507812 47.777344 L 21.019531 47.679688 L 19.652344 47.386719 L 18.457031 47.046875 L 17.699219 46.800781 L 16.722656 46.4375 L 15.992188 46.117188 L 15.355469 45.824219 L 14.890625 45.605469 L 14.550781 45.410156 L 14.160156 45.214844 L 14.039062 45.117188 L 13.550781 44.847656 L 13.0625 44.554688 L 12.792969 44.382812 L 12.402344 44.117188 L 11.9375 43.773438 L 11.546875 43.507812 L 11.230469 43.238281 L 10.914062 42.992188 L 10.742188 42.820312 L 10.523438 42.652344 L 10.179688 42.359375 L 10.007812 42.1875 L 9.8125 42.015625 L 9.449219 41.675781 L 8.960938 41.1875 L 8.789062 40.992188 L 8.496094 40.671875 L 8.277344 40.40625 L 8.082031 40.1875 L 7.960938 40.0625 L 7.738281 39.796875 L 7.25 39.160156 L 7.007812 38.820312 L 6.714844 38.429688 L 6.421875 37.988281 L 6.152344 37.546875 L 5.933594 37.207031 L 5.6875 36.765625 L 5.542969 36.546875 L 5.347656 36.15625 L 4.929688 35.304688 L 4.734375 34.914062 L 4.539062 34.472656 L 4.296875 33.863281 L 4.148438 33.472656 L 3.859375 32.59375 L 3.636719 31.859375 L 3.492188 31.296875 L 3.394531 30.882812 L 3.246094 30.226562 L 3.078125 29.371094 L 2.976562 28.613281 L 2.90625 27.90625 L 2.808594 26.539062 L 2.808594 25.269531 L 2.90625 23.828125 L 3.003906 22.972656 L 3.078125 22.363281 L 3.296875 21.363281 L 3.441406 20.605469 L 3.539062 20.289062 L 3.882812 19.117188 L 4.148438 18.3125 L 4.492188 17.480469 L 4.734375 16.894531 L 5.03125 16.285156 L 5.589844 15.160156 L 5.738281 14.941406 L 5.980469 14.476562 L 6.347656 13.890625 L 6.664062 13.429688 L 6.835938 13.160156 L 7.078125 12.867188 L 7.375 12.453125 L 7.59375 12.207031 L 7.765625 11.960938 L 7.984375 11.695312 L 8.25 11.351562 L 8.617188 10.984375 L 8.789062 10.789062 L 9.472656 10.109375 L 9.644531 9.914062 L 10.277344 9.328125 L 10.59375 9.058594 L 10.789062 8.886719 L 11.230469 8.546875 L 11.523438 8.300781 L 11.988281 7.960938 L 12.257812 7.765625 L 13.28125 7.078125 L 13.597656 6.910156 L 13.914062 6.714844 L 14.429688 6.445312 L 14.671875 6.296875 L 15.28125 5.980469 L 15.917969 5.6875 L 17.015625 5.226562 L 18.140625 4.835938 L 18.703125 4.664062 L 19.554688 4.417969 L 20.335938 4.25 L 21.019531 4.101562 L 21.632812 4.003906 L 22.414062 3.90625 L 23 3.859375 L 23.195312 3.808594 L 24.171875 3.757812 Z M 24 6.421875 L 23.289062 6.46875 L 21.972656 6.617188 L 21.3125 6.738281 L 20.019531 7.03125 L 19.3125 7.226562 L 18.140625 7.617188 L 17.652344 7.8125 L 17.089844 8.054688 L 16.601562 8.277344 L 16.308594 8.398438 L 15.625 8.765625 L 15.085938 9.058594 L 14.625 9.351562 L 14.039062 9.71875 L 13.671875 9.984375 L 13.402344 10.179688 L 13.085938 10.425781 L 12.695312 10.71875 L 12.425781 10.960938 L 12.207031 11.132812 L 11.839844 11.476562 L 11.523438 11.742188 L 11.15625 12.085938 L 10.816406 12.425781 L 10.644531 12.621094 L 10.425781 12.867188 L 10.425781 12.914062 L 10.375 12.914062 L 9.9375 13.453125 L 9.667969 13.769531 L 9.421875 14.085938 L 9.132812 14.476562 L 8.960938 14.722656 L 8.570312 15.308594 L 8.277344 15.773438 L 8.105469 16.039062 L 8.007812 16.257812 L 7.789062 16.601562 L 7.519531 17.113281 L 7.398438 17.382812 L 7.324219 17.554688 L 6.957031 18.359375 L 6.738281 18.921875 L 6.566406 19.410156 L 6.421875 19.847656 L 6.152344 20.726562 L 6.007812 21.3125 L 5.933594 21.558594 L 5.882812 21.828125 L 5.785156 22.289062 L 5.664062 23.070312 L 5.589844 23.535156 L 5.515625 24.367188 L 5.492188 24.730469 L 5.492188 26.976562 L 5.542969 27.78125 L 5.640625 28.636719 L 5.859375 29.808594 L 5.957031 30.296875 L 6.175781 31.152344 L 6.398438 31.882812 L 6.617188 32.519531 L 6.835938 33.105469 L 7.105469 33.789062 L 7.640625 34.886719 L 7.910156 35.398438 L 8.054688 35.644531 L 8.445312 36.304688 L 8.742188 36.742188 L 9.15625 37.351562 L 9.328125 37.546875 L 9.617188 37.964844 L 9.9375 38.355469 L 10.15625 38.625 L 10.328125 38.792969 L 10.523438 39.039062 L 10.914062 39.453125 L 11.570312 40.113281 L 11.765625 40.28125 L 12.011719 40.503906 L 12.207031 40.671875 L 12.5 40.917969 L 12.84375 41.1875 L 13.0625 41.382812 L 13.648438 41.773438 L 13.890625 41.945312 L 14.234375 42.210938 L 14.722656 42.503906 L 15.039062 42.699219 L 15.308594 42.847656 L 15.746094 43.089844 L 16.113281 43.285156 L 16.527344 43.480469 L 17.015625 43.703125 L 17.601562 43.96875 L 17.921875 44.09375 L 18.628906 44.335938 L 19.359375 44.578125 L 20.386719 44.847656 L 21.289062 45.042969 L 22.09375 45.191406 L 23.339844 45.335938 L 24.4375 45.359375 L 25.585938 45.359375 L 26.683594 45.335938 L 27.222656 45.289062 L 27.882812 45.191406 L 29.734375 44.824219 L 30.617188 44.578125 L 31.128906 44.433594 L 31.519531 44.289062 L 32.007812 44.117188 L 32.496094 43.921875 L 33.105469 43.652344 L 33.496094 43.480469 L 34.179688 43.140625 L 34.523438 42.945312 L 34.984375 42.675781 L 35.203125 42.554688 L 35.328125 42.457031 L 35.667969 42.234375 L 35.890625 42.113281 L 36.230469 41.871094 L 36.523438 41.675781 L 36.914062 41.382812 L 37.183594 41.164062 L 37.523438 40.867188 L 37.742188 40.699219 L 37.988281 40.476562 L 38.234375 40.28125 L 38.523438 39.992188 L 38.574219 39.964844 L 38.574219 39.917969 L 38.671875 39.867188 L 39.0625 39.476562 L 39.0625 39.429688 L 39.160156 39.378906 L 39.378906 39.109375 L 39.769531 38.695312 L 39.769531 38.648438 L 39.820312 38.648438 L 39.992188 38.453125 L 40.308594 38.0625 L 40.503906 37.792969 L 40.746094 37.476562 L 40.992188 37.132812 L 41.332031 36.644531 L 41.648438 36.132812 L 41.871094 35.765625 L 42.164062 35.253906 L 42.335938 34.914062 L 42.503906 34.617188 L 42.675781 34.226562 L 42.820312 33.910156 L 43.042969 33.421875 L 43.335938 32.691406 L 43.773438 31.371094 L 44.066406 30.226562 L 44.1875 29.566406 L 44.261719 29.125 L 44.382812 28.515625 L 44.433594 28.050781 L 44.457031 27.976562 L 44.507812 26.636719 L 44.507812 25.269531 L 44.457031 23.875 L 44.359375 23.144531 L 44.238281 22.535156 L 44.164062 22.070312 L 44.019531 21.386719 L 43.898438 20.921875 L 43.847656 20.703125 L 43.675781 20.09375 L 43.433594 19.382812 L 43.210938 18.824219 L 43.066406 18.433594 L 42.847656 17.921875 L 42.726562 17.652344 L 42.554688 17.261719 L 42.308594 16.796875 L 42.089844 16.429688 L 41.773438 15.867188 L 41.578125 15.527344 L 41.257812 15.0625 L 41.164062 14.941406 L 41.015625 14.671875 L 40.820312 14.429688 L 40.625 14.136719 L 40.382812 13.84375 L 40.210938 13.597656 L 40.160156 13.597656 L 40.113281 13.5 L 39.890625 13.257812 L 39.722656 13.039062 L 39.671875 13.039062 L 39.625 12.9375 L 39.40625 12.695312 L 39.234375 12.476562 L 39.183594 12.476562 L 39.160156 12.402344 L 39.015625 12.28125 L 38.941406 12.183594 L 38.890625 12.183594 L 38.84375 12.085938 L 38.792969 12.085938 L 38.746094 11.988281 L 38.550781 11.816406 L 38.257812 11.523438 L 38.011719 11.328125 L 37.695312 11.035156 L 37.378906 10.789062 L 37.132812 10.570312 L 36.695312 10.277344 L 36.5 10.109375 L 36.304688 9.960938 L 36.035156 9.789062 L 35.71875 9.570312 L 35.328125 9.328125 L 35.058594 9.15625 L 34.765625 8.984375 L 34.496094 8.835938 L 34.300781 8.714844 L 33.910156 8.519531 L 33.398438 8.277344 L 32.835938 8.007812 L 32.179688 7.738281 L 31.152344 7.375 L 30.761719 7.25 L 30.101562 7.054688 L 29.566406 6.933594 L 28.6875 6.738281 L 28.027344 6.617188 L 27.269531 6.519531 L 26.292969 6.421875 Z M 24 6.421875 "/>
<path style=" stroke:none;fill-rule:nonzero;fill:rgb(3.137255%,19.607843%,80%);fill-opacity:1;" d="M 24 6.421875 L 26.292969 6.421875 L 27.269531 6.519531 L 28.148438 6.640625 L 28.929688 6.789062 L 30.101562 7.054688 L 30.761719 7.25 L 31.152344 7.375 L 31.910156 7.640625 L 32.542969 7.886719 L 33.105469 8.128906 L 33.445312 8.300781 L 34.007812 8.570312 L 34.472656 8.8125 L 34.691406 8.960938 L 34.886719 9.058594 L 35.230469 9.253906 L 35.667969 9.546875 L 35.9375 9.71875 L 36.253906 9.9375 L 36.476562 10.082031 L 36.621094 10.203125 L 36.695312 10.277344 L 36.914062 10.425781 L 37.183594 10.621094 L 37.425781 10.839844 L 37.742188 11.085938 L 38.0625 11.375 L 38.328125 11.597656 L 38.695312 11.960938 L 38.792969 12.035156 L 38.792969 12.085938 L 38.890625 12.132812 L 38.890625 12.183594 L 38.988281 12.230469 L 39.109375 12.378906 L 39.183594 12.425781 L 39.183594 12.476562 L 39.28125 12.523438 L 39.527344 12.84375 L 39.671875 12.988281 L 39.671875 13.039062 L 39.722656 13.039062 L 39.992188 13.378906 L 40.160156 13.550781 L 40.160156 13.597656 L 40.210938 13.597656 L 40.40625 13.867188 L 40.625 14.136719 L 40.894531 14.527344 L 41.039062 14.722656 L 41.1875 14.964844 L 41.429688 15.308594 L 41.675781 15.699219 L 42.113281 16.480469 L 42.359375 16.894531 L 42.578125 17.308594 L 42.820312 17.894531 L 42.992188 18.261719 L 43.117188 18.578125 L 43.238281 18.871094 L 43.382812 19.238281 L 43.628906 19.945312 L 43.773438 20.433594 L 43.871094 20.75 L 43.945312 21.117188 L 44.066406 21.582031 L 44.1875 22.21875 L 44.335938 23.070312 L 44.382812 23.339844 L 44.457031 23.875 L 44.507812 25.269531 L 44.507812 26.636719 L 44.457031 27.976562 L 44.410156 28.273438 L 44.359375 28.664062 L 44.238281 29.222656 L 44.1875 29.566406 L 44.042969 30.320312 L 43.773438 31.371094 L 43.3125 32.765625 L 43.015625 33.472656 L 42.726562 34.132812 L 42.503906 34.617188 L 42.1875 35.179688 L 42.039062 35.472656 L 41.84375 35.816406 L 41.503906 36.375 L 41.164062 36.890625 L 40.867188 37.304688 L 40.648438 37.597656 L 40.160156 38.234375 L 39.941406 38.5 L 39.820312 38.648438 L 39.769531 38.648438 L 39.722656 38.746094 L 39.550781 38.914062 L 39.378906 39.109375 L 39.234375 39.304688 L 39.109375 39.429688 L 39.0625 39.429688 L 39.015625 39.527344 L 38.625 39.917969 L 38.574219 39.917969 L 38.574219 39.964844 L 38.378906 40.136719 L 38.160156 40.355469 L 37.914062 40.550781 L 37.671875 40.773438 L 37.351562 41.015625 L 37.109375 41.234375 L 36.695312 41.554688 L 36.304688 41.820312 L 35.890625 42.113281 L 35.523438 42.335938 L 35.253906 42.503906 L 35.058594 42.652344 L 34.789062 42.796875 L 34.472656 42.96875 L 34.179688 43.140625 L 33.59375 43.433594 L 33.105469 43.652344 L 32.398438 43.96875 L 31.617188 44.261719 L 30.957031 44.484375 L 30.371094 44.652344 L 29.640625 44.847656 L 28.148438 45.140625 L 27.585938 45.238281 L 27.027344 45.3125 L 26.683594 45.335938 L 25.585938 45.359375 L 24.4375 45.359375 L 23.339844 45.335938 L 22.09375 45.191406 L 21.046875 44.996094 L 20.289062 44.824219 L 19.359375 44.578125 L 18.554688 44.3125 L 17.921875 44.09375 L 17.335938 43.847656 L 16.210938 43.335938 L 15.746094 43.089844 L 15.476562 42.945312 L 15.234375 42.796875 L 14.941406 42.652344 L 14.671875 42.480469 L 14.160156 42.164062 L 13.867188 41.917969 L 13.355469 41.578125 L 12.964844 41.308594 L 12.792969 41.136719 L 12.378906 40.820312 L 12.0625 40.527344 L 11.839844 40.355469 L 11.621094 40.136719 L 11.425781 39.964844 L 10.695312 39.234375 L 10.523438 39.039062 L 10.230469 38.695312 L 9.960938 38.402344 L 9.71875 38.085938 L 9.203125 37.402344 L 9.03125 37.183594 L 8.546875 36.449219 L 8.277344 36.011719 L 8.007812 35.546875 L 7.789062 35.179688 L 7.300781 34.203125 L 7.03125 33.617188 L 6.835938 33.105469 L 6.664062 32.640625 L 6.445312 32.03125 L 6.273438 31.492188 L 6.101562 30.882812 L 5.882812 29.980469 L 5.664062 28.734375 L 5.589844 28.246094 L 5.515625 27.417969 L 5.492188 26.976562 L 5.492188 24.730469 L 5.542969 24 L 5.640625 23.195312 L 5.761719 22.484375 L 5.859375 21.921875 L 5.90625 21.753906 L 5.980469 21.363281 L 6.101562 20.921875 L 6.296875 20.238281 L 6.519531 19.53125 L 6.714844 19.019531 L 6.859375 18.601562 L 7.179688 17.871094 L 7.375 17.480469 L 7.46875 17.234375 L 7.835938 16.503906 L 8.007812 16.257812 L 8.179688 15.917969 L 8.546875 15.355469 L 8.691406 15.113281 L 8.886719 14.84375 L 9.058594 14.574219 L 9.300781 14.257812 L 9.59375 13.867188 L 9.9375 13.453125 L 10.230469 13.109375 L 10.375 12.914062 L 10.425781 12.914062 L 10.472656 12.816406 L 10.695312 12.574219 L 11.035156 12.207031 L 11.375 11.867188 L 11.570312 11.695312 L 11.890625 11.425781 L 12.0625 11.253906 L 12.257812 11.085938 L 12.5 10.890625 L 12.742188 10.667969 L 13.085938 10.425781 L 13.429688 10.15625 L 13.867188 9.839844 L 14.234375 9.59375 L 14.550781 9.398438 L 15.015625 9.105469 L 15.453125 8.863281 L 16.089844 8.519531 L 16.453125 8.324219 L 16.773438 8.203125 L 17.359375 7.933594 L 17.945312 7.691406 L 19.164062 7.273438 L 19.726562 7.105469 L 20.875 6.835938 L 21.679688 6.664062 L 22.386719 6.566406 L 23.289062 6.46875 Z M 24.683594 8.375 L 23.4375 8.472656 L 22.703125 8.570312 L 22.046875 8.691406 L 21.070312 8.910156 L 20.191406 9.15625 L 19.3125 9.449219 L 18.628906 9.71875 L 18.066406 9.960938 L 17.359375 10.304688 L 16.75 10.621094 L 16.089844 11.011719 L 15.625 11.304688 L 15.0625 11.695312 L 14.671875 11.988281 L 14.355469 12.230469 L 13.941406 12.574219 L 13.597656 12.867188 L 13.207031 13.234375 L 12.914062 13.5 L 12.546875 13.867188 L 12.378906 14.0625 L 12.109375 14.355469 L 11.890625 14.625 L 11.597656 14.964844 L 11.425781 15.1875 L 11.425781 15.234375 L 11.375 15.234375 L 11.28125 15.382812 L 10.9375 15.84375 L 10.546875 16.429688 L 10.277344 16.871094 L 10.082031 17.1875 L 9.9375 17.457031 L 9.523438 18.261719 L 9.203125 18.96875 L 8.9375 19.628906 L 8.640625 20.484375 L 8.421875 21.265625 L 8.25 21.949219 L 8.054688 23 L 7.933594 24.046875 L 7.886719 24.976562 L 7.886719 26.023438 L 7.933594 26.953125 L 8.03125 27.808594 L 8.128906 28.417969 L 8.203125 28.832031 L 8.277344 29.125 L 8.324219 29.46875 L 8.421875 29.785156 L 8.570312 30.25 L 8.714844 30.761719 L 8.9375 31.398438 L 9.300781 32.273438 L 9.59375 32.910156 L 9.839844 33.375 L 10.179688 33.984375 L 10.546875 34.570312 L 10.890625 35.082031 L 11.15625 35.472656 L 11.207031 35.472656 L 11.253906 35.59375 L 11.570312 35.984375 L 11.816406 36.304688 L 12.0625 36.570312 L 12.28125 36.839844 L 12.5 37.0625 L 12.671875 37.257812 L 13.132812 37.71875 L 13.328125 37.890625 L 13.523438 38.085938 L 13.792969 38.304688 L 14.160156 38.625 L 14.5 38.890625 L 14.941406 39.234375 L 15.503906 39.625 L 16.039062 39.964844 L 16.578125 40.28125 L 16.820312 40.429688 L 17.601562 40.820312 L 18.210938 41.113281 L 18.871094 41.382812 L 19.457031 41.601562 L 20.335938 41.894531 L 21.070312 42.089844 L 21.777344 42.261719 L 22.265625 42.359375 L 22.875 42.457031 L 23.65625 42.554688 L 24.511719 42.625 L 25.023438 42.652344 L 26.097656 42.652344 L 27 42.601562 L 27.882812 42.503906 L 28.5625 42.40625 L 29.46875 42.234375 L 30.445312 41.992188 L 31.398438 41.699219 L 32.007812 41.480469 L 32.664062 41.210938 L 32.933594 41.089844 L 33.324219 40.917969 L 33.714844 40.722656 L 34.398438 40.355469 L 35.132812 39.917969 L 35.546875 39.648438 L 35.9375 39.378906 L 36.402344 39.039062 L 36.765625 38.746094 L 37.109375 38.476562 L 37.402344 38.207031 L 37.671875 37.988281 L 37.914062 37.742188 L 38.109375 37.574219 L 38.476562 37.207031 L 38.648438 37.011719 L 38.964844 36.671875 L 39.183594 36.402344 L 39.453125 36.085938 L 39.722656 35.742188 L 40.0625 35.277344 L 40.355469 34.863281 L 40.671875 34.375 L 40.96875 33.886719 L 41.257812 33.375 L 41.722656 32.445312 L 42.066406 31.640625 L 42.335938 30.90625 L 42.601562 30.054688 L 42.773438 29.394531 L 42.921875 28.734375 L 43.066406 27.855469 L 43.164062 27.050781 L 43.210938 26.414062 L 43.210938 24.78125 L 43.164062 24.046875 L 43.089844 23.363281 L 42.992188 22.703125 L 42.820312 21.828125 L 42.625 21.046875 L 42.40625 20.3125 L 42.140625 19.554688 L 41.796875 18.726562 L 41.453125 18.015625 L 41.257812 17.625 L 41.113281 17.382812 L 40.96875 17.113281 L 40.722656 16.699219 L 40.382812 16.164062 L 40.136719 15.820312 L 39.941406 15.550781 L 39.648438 15.160156 L 39.332031 14.769531 L 39.109375 14.5 L 38.769531 14.136719 L 38.597656 13.941406 L 37.742188 13.085938 L 37.546875 12.914062 L 37.28125 12.671875 L 37.011719 12.453125 L 36.644531 12.15625 L 36.328125 11.914062 L 35.890625 11.597656 L 35.15625 11.109375 L 34.546875 10.742188 L 33.960938 10.425781 L 33.398438 10.132812 L 32.765625 9.839844 L 31.910156 9.496094 L 31.226562 9.253906 L 30.492188 9.03125 L 29.417969 8.765625 L 28.539062 8.59375 L 27.6875 8.472656 L 26.832031 8.398438 L 26.515625 8.375 Z M 24.683594 8.375 "/>
<path style=" stroke:none;fill-rule:nonzero;fill:rgb(99.607843%,99.607843%,99.607843%);fill-opacity:1;" d="M 22.65625 15.453125 L 23.046875 15.453125 L 23.316406 15.550781 L 23.511719 15.699219 L 23.707031 15.96875 L 23.828125 16.382812 L 23.851562 16.648438 L 23.925781 16.894531 L 23.976562 17.140625 L 24.023438 17.335938 L 24 17.503906 L 24.121094 17.382812 L 24.65625 16.796875 L 24.851562 16.601562 L 25.046875 16.453125 L 25.292969 16.332031 L 25.464844 16.285156 L 25.855469 16.285156 L 26.195312 16.40625 L 26.441406 16.601562 L 26.585938 16.796875 L 26.660156 16.96875 L 26.78125 16.917969 L 26.976562 16.820312 L 27.148438 16.796875 L 27.367188 16.796875 L 27.613281 16.871094 L 27.882812 17.015625 L 28.027344 17.1875 L 28.171875 17.480469 L 28.222656 17.652344 L 28.222656 17.96875 L 28.171875 18.210938 L 28.050781 18.359375 L 28.320312 18.507812 L 28.539062 18.75 L 28.613281 18.96875 L 28.734375 18.847656 L 29.101562 18.457031 L 29.296875 18.238281 L 29.566406 18.042969 L 29.785156 17.96875 L 30.199219 17.96875 L 30.445312 18.042969 L 30.6875 18.1875 L 30.835938 18.359375 L 30.980469 18.652344 L 31.007812 18.75 L 31.007812 19.164062 L 30.90625 19.359375 L 30.738281 19.578125 L 30.46875 19.875 L 27.882812 22.460938 L 27.710938 22.65625 L 26.710938 23.65625 L 26.441406 23.875 L 26.125 24.070312 L 25.707031 24.21875 L 24.65625 24.21875 L 24.292969 24.097656 L 23.875 23.875 L 23.632812 23.679688 L 23.4375 23.511719 L 23.265625 23.316406 L 22.265625 22.3125 L 22.070312 22.046875 L 21.972656 21.851562 L 21.921875 21.777344 L 21.875 21.582031 L 21.828125 21.460938 L 21.828125 20.460938 L 21.875 20.3125 L 21.921875 19.875 L 21.972656 19.824219 L 21.972656 19.289062 L 21.949219 18.359375 L 21.921875 18.238281 L 21.898438 17.113281 L 21.898438 16.113281 L 21.996094 15.867188 L 22.21875 15.601562 L 22.363281 15.503906 Z M 22.65625 15.453125 "/>
<path style=" stroke:none;fill-rule:nonzero;fill:rgb(0.784314%,17.647059%,27.45098%);fill-opacity:1;" d="M 22.804688 15.992188 L 22.972656 16.0625 L 23.144531 16.257812 L 23.167969 16.308594 L 23.195312 16.554688 L 23.289062 16.773438 L 23.390625 17.1875 L 23.535156 17.945312 L 23.511719 18.117188 L 23.4375 18.1875 L 23.414062 18.261719 L 23.414062 18.824219 L 23.511719 19.09375 L 23.65625 19.335938 L 23.875 19.507812 L 24.242188 19.652344 L 24.4375 19.703125 L 24.4375 19.898438 L 24.488281 20.070312 L 24.683594 20.335938 L 24.878906 20.507812 L 25.097656 20.628906 L 25.4375 20.679688 L 25.511719 20.972656 L 25.632812 21.191406 L 25.757812 21.335938 L 26.074219 21.53125 L 26.195312 21.582031 L 26.710938 21.582031 L 26.953125 21.460938 L 27.171875 21.289062 L 29.148438 19.3125 L 29.320312 19.117188 L 29.808594 18.628906 L 30.03125 18.554688 L 30.226562 18.628906 L 30.347656 18.75 L 30.371094 18.824219 L 30.371094 19.019531 L 30.296875 19.140625 L 30.003906 19.457031 L 29.125 20.335938 L 29.078125 20.335938 L 29.027344 20.433594 L 28.078125 21.386719 L 27.90625 21.582031 L 26.171875 23.316406 L 25.902344 23.484375 L 25.585938 23.609375 L 25.367188 23.65625 L 24.976562 23.65625 L 24.5625 23.535156 L 24.265625 23.390625 L 23.875 23.070312 L 23.390625 22.582031 L 23.21875 22.386719 L 22.753906 21.921875 L 22.558594 21.65625 L 22.460938 21.4375 L 22.4375 21.191406 L 22.386719 21.046875 L 22.460938 20.703125 L 22.460938 20.386719 L 22.535156 20.117188 L 22.582031 19.652344 L 22.558594 18.871094 L 22.558594 17.847656 L 22.507812 16.871094 L 22.507812 16.234375 L 22.679688 16.039062 Z M 22.804688 15.992188 "/>
<path style=" stroke:none;fill-rule:nonzero;fill:rgb(99.607843%,99.607843%,99.607843%);fill-opacity:1;" d="M 11.15625 27.808594 L 12.011719 27.808594 L 12.0625 27.832031 L 12.085938 30.078125 L 12.132812 30.421875 L 12.257812 30.664062 L 12.402344 30.785156 L 12.648438 30.882812 L 12.9375 30.882812 L 13.183594 30.785156 L 13.355469 30.640625 L 13.5 30.320312 L 13.5 27.832031 L 13.523438 27.808594 L 14.429688 27.808594 L 14.453125 27.855469 L 14.453125 30.101562 L 14.527344 30.445312 L 14.625 30.640625 L 14.796875 30.785156 L 15.0625 30.882812 L 15.332031 30.882812 L 15.578125 30.785156 L 15.699219 30.6875 L 15.820312 30.445312 L 15.894531 30.226562 L 15.917969 27.808594 L 16.820312 27.808594 L 16.820312 30.515625 L 16.699219 30.882812 L 16.554688 31.128906 L 16.453125 31.25 L 16.210938 31.445312 L 15.867188 31.59375 L 15.503906 31.6875 L 14.796875 31.6875 L 14.695312 31.617188 L 14.527344 31.617188 L 14.160156 31.421875 L 14.039062 31.324219 L 13.914062 31.347656 L 13.695312 31.492188 L 13.402344 31.617188 L 13.109375 31.6875 L 12.5 31.6875 L 12.28125 31.617188 L 12.085938 31.59375 L 11.671875 31.371094 L 11.476562 31.175781 L 11.304688 30.882812 L 11.230469 30.664062 L 11.179688 30.566406 L 11.207031 30.46875 L 11.132812 30.152344 L 11.132812 27.832031 Z M 11.15625 27.808594 "/>
<path style=" stroke:none;fill-rule:nonzero;fill:rgb(99.215686%,99.215686%,99.215686%);fill-opacity:1;" d="M 19.261719 27.734375 L 19.507812 27.734375 L 19.898438 27.78125 L 20.191406 27.882812 L 20.507812 28.050781 L 20.703125 28.222656 L 20.921875 28.5625 L 21.070312 28.90625 L 21.117188 29.222656 L 21.117188 31.59375 L 20.214844 31.59375 L 20.214844 30.710938 L 18.554688 30.710938 L 18.554688 31.59375 L 17.652344 31.59375 L 17.625 31.519531 L 17.625 29.125 L 17.75 28.734375 L 17.921875 28.394531 L 18.1875 28.101562 L 18.457031 27.929688 L 18.75 27.808594 L 18.96875 27.757812 Z M 19.261719 27.734375 "/>
<path style=" stroke:none;fill-rule:nonzero;fill:rgb(99.215686%,99.215686%,99.215686%);fill-opacity:1;" d="M 37.035156 27.808594 L 38.257812 27.808594 L 38.792969 27.882812 L 39.109375 28.003906 L 39.355469 28.148438 L 39.527344 28.296875 L 39.695312 28.5625 L 39.796875 28.859375 L 39.820312 29.003906 L 39.820312 29.394531 L 39.746094 29.710938 L 39.601562 29.980469 L 39.355469 30.226562 L 39.085938 30.394531 L 38.648438 30.542969 L 37.425781 30.566406 L 37.425781 31.566406 L 37.378906 31.59375 L 36.597656 31.59375 L 36.546875 31.566406 L 36.523438 30.492188 L 36.523438 27.882812 L 36.546875 27.832031 Z M 37.035156 27.808594 "/>
<path style=" stroke:none;fill-rule:nonzero;fill:rgb(99.607843%,99.607843%,99.607843%);fill-opacity:1;" d="M 25.34375 27.808594 L 26.246094 27.808594 L 26.269531 27.832031 L 26.269531 29.273438 L 27.882812 29.273438 L 27.882812 27.832031 L 27.90625 27.808594 L 28.808594 27.808594 L 28.832031 27.855469 L 28.832031 31.59375 L 28.6875 31.617188 L 27.882812 31.59375 L 27.882812 30.078125 L 26.269531 30.101562 L 26.269531 31.566406 L 26.246094 31.59375 L 25.464844 31.617188 L 25.34375 31.59375 Z M 25.34375 27.808594 "/>
<path style=" stroke:none;fill-rule:nonzero;fill:rgb(99.607843%,99.607843%,99.607843%);fill-opacity:1;" d="M 31.175781 27.734375 L 31.445312 27.734375 L 31.59375 27.757812 L 31.984375 27.78125 L 32.078125 27.832031 L 32.347656 27.882812 L 32.59375 27.976562 L 32.640625 28.027344 L 32.59375 28.273438 L 32.445312 28.6875 L 32.226562 28.664062 L 31.957031 28.5625 L 31.492188 28.492188 L 31.226562 28.492188 L 30.859375 28.5625 L 30.640625 28.710938 L 30.542969 28.859375 L 30.542969 29.027344 L 30.664062 29.199219 L 30.882812 29.296875 L 31.007812 29.320312 L 32.105469 29.34375 L 32.128906 29.371094 L 32.128906 30.03125 L 30.933594 30.054688 L 30.617188 30.152344 L 30.492188 30.226562 L 30.445312 30.226562 L 30.394531 30.371094 L 30.394531 30.566406 L 30.492188 30.738281 L 30.664062 30.835938 L 30.859375 30.90625 L 31.714844 30.90625 L 31.910156 30.835938 L 32.128906 30.785156 L 32.445312 30.617188 L 32.542969 30.617188 L 32.691406 30.957031 L 32.789062 31.175781 L 32.789062 31.296875 L 32.664062 31.371094 L 32.421875 31.492188 L 32.105469 31.59375 L 31.8125 31.640625 L 31.714844 31.664062 L 30.761719 31.664062 L 30.589844 31.617188 L 30.296875 31.566406 L 29.957031 31.421875 L 29.710938 31.226562 L 29.589844 31.078125 L 29.46875 30.835938 L 29.46875 30.226562 L 29.589844 29.980469 L 29.808594 29.761719 L 29.929688 29.6875 L 29.980469 29.6875 L 29.90625 29.566406 L 29.785156 29.445312 L 29.6875 29.320312 L 29.613281 29.125 L 29.613281 28.636719 L 29.808594 28.246094 L 30.054688 28.027344 L 30.347656 27.882812 L 30.835938 27.757812 L 31.03125 27.757812 Z M 31.175781 27.734375 "/>
<path style=" stroke:none;fill-rule:nonzero;fill:rgb(99.607843%,99.607843%,99.607843%);fill-opacity:1;" d="M 22.972656 27.734375 L 23.363281 27.734375 L 23.976562 27.808594 L 24.339844 27.90625 L 24.78125 28.078125 L 24.976562 28.199219 L 24.953125 28.34375 L 24.730469 28.832031 L 24.683594 28.882812 L 24.535156 28.859375 L 24 28.636719 L 23.632812 28.539062 L 23.65625 28.589844 L 23.65625 31.59375 L 23.632812 31.617188 L 22.730469 31.617188 L 22.703125 31.59375 L 22.703125 28.539062 L 22.242188 28.6875 L 21.777344 28.882812 L 21.65625 28.859375 L 21.410156 28.34375 L 21.363281 28.273438 L 21.363281 28.199219 L 21.753906 28.003906 L 22.265625 27.832031 L 22.609375 27.757812 Z M 22.972656 27.734375 "/>
<path style=" stroke:none;fill-rule:nonzero;fill:rgb(99.607843%,99.607843%,99.607843%);fill-opacity:1;" d="M 33.277344 27.808594 L 34.15625 27.808594 L 34.203125 27.855469 L 34.203125 30.835938 L 36.058594 30.835938 L 36.085938 30.882812 L 36.085938 31.566406 L 36.035156 31.617188 L 33.277344 31.617188 L 33.25 31.59375 L 33.25 27.855469 Z M 33.277344 27.808594 "/>
<path style=" stroke:none;fill-rule:nonzero;fill:rgb(0.784314%,17.647059%,28.235294%);fill-opacity:1;" d="M 27.171875 17.40625 L 27.34375 17.429688 L 27.539062 17.601562 L 27.636719 17.75 L 27.613281 17.921875 L 27.390625 18.164062 L 27.050781 18.53125 L 26.804688 18.75 L 26.464844 19.117188 L 25.683594 19.898438 L 25.488281 20.070312 L 25.390625 20.09375 L 25.148438 19.921875 L 25 19.75 L 24.976562 19.578125 L 25.414062 19.09375 L 26.90625 17.601562 L 27.125 17.429688 Z M 27.171875 17.40625 "/>
<path style=" stroke:none;fill-rule:nonzero;fill:rgb(0.784314%,17.647059%,28.235294%);fill-opacity:1;" d="M 25.585938 16.84375 L 25.78125 16.871094 L 25.953125 16.992188 L 26.074219 17.164062 L 26.097656 17.285156 L 26.074219 17.554688 L 25.464844 18.164062 L 25.292969 18.359375 L 24.902344 18.75 L 24.78125 18.898438 L 24.632812 19.019531 L 24.5625 19.042969 L 24.316406 19.042969 L 24.195312 18.992188 L 24.046875 18.824219 L 23.949219 18.628906 L 23.976562 18.457031 L 24.144531 18.210938 L 24.292969 18.066406 L 24.339844 18.066406 L 24.367188 17.992188 L 25.074219 17.285156 L 25.242188 17.140625 L 25.414062 16.945312 Z M 25.585938 16.84375 "/>
<path style=" stroke:none;fill-rule:nonzero;fill:rgb(0.784314%,17.647059%,27.843137%);fill-opacity:1;" d="M 19.140625 28.539062 L 19.554688 28.539062 L 19.773438 28.613281 L 19.96875 28.757812 L 20.117188 28.980469 L 20.164062 29.125 L 20.191406 29.296875 L 20.214844 29.929688 L 18.578125 29.929688 L 18.578125 29.101562 L 18.675781 28.859375 L 18.871094 28.664062 Z M 19.140625 28.539062 "/>
<path style=" stroke:none;fill-rule:nonzero;fill:rgb(0.784314%,17.647059%,28.627451%);fill-opacity:1;" d="M 27.613281 18.898438 L 27.757812 18.898438 L 27.953125 19.066406 L 28.101562 19.289062 L 28.125 19.433594 L 27.855469 19.726562 L 27.6875 19.898438 L 27.515625 20.09375 L 26.683594 20.921875 L 26.515625 20.996094 L 26.292969 20.972656 L 26.097656 20.800781 L 26.023438 20.628906 L 26.050781 20.410156 L 26.246094 20.191406 L 26.367188 20.09375 L 26.539062 19.898438 L 27 19.433594 L 27.050781 19.433594 L 27.101562 19.335938 L 27.417969 19.019531 Z M 27.613281 18.898438 "/>
<path style=" stroke:none;fill-rule:nonzero;fill:rgb(0.784314%,17.647059%,29.411765%);fill-opacity:1;" d="M 37.453125 28.539062 L 38.257812 28.539062 L 38.550781 28.613281 L 38.746094 28.734375 L 38.84375 28.859375 L 38.890625 28.980469 L 38.890625 29.417969 L 38.792969 29.589844 L 38.625 29.734375 L 38.402344 29.808594 L 38.085938 29.835938 L 37.546875 29.835938 L 37.425781 29.785156 L 37.425781 28.5625 Z M 37.453125 28.539062 "/>
</g>
</svg>
