<svg width="321" height="88" viewBox="0 0 321 88" fill="none" xmlns="http://www.w3.org/2000/svg">
<g clip-path="url(#clip0_3760_124237)">
<path d="M74.2527 24.75H13.7527C12.2339 24.75 11.0027 25.9812 11.0027 27.5V71.5C11.0027 73.0188 12.2339 74.25 13.7527 74.25H74.2527C75.7715 74.25 77.0027 73.0188 77.0027 71.5V27.5C77.0027 25.9812 75.7715 24.75 74.2527 24.75Z" stroke="white" stroke-width="5" stroke-linecap="round" stroke-linejoin="round"/>
<path d="M57.75 24.75V19.25C57.75 17.7913 57.1705 16.3924 56.1391 15.3609C55.1076 14.3295 53.7087 13.75 52.25 13.75H35.75C34.2913 13.75 32.8924 14.3295 31.8609 15.3609C30.8295 16.3924 30.25 17.7913 30.25 19.25V24.75" stroke="white" stroke-width="5" stroke-linecap="round" stroke-linejoin="round"/>
<path d="M77.0028 43.4189C66.9732 49.2216 55.5873 52.2684 44.0001 52.2502C32.4148 52.2684 21.0307 49.2227 11.0023 43.4219" stroke="white" stroke-width="5" stroke-linecap="round" stroke-linejoin="round"/>
<path d="M39.875 41.25H48.125" stroke="white" stroke-width="5" stroke-linecap="round" stroke-linejoin="round"/>
</g>
<path d="M120.085 23.2727H127.403V51.9091C127.39 54.5341 126.833 56.7945 125.733 58.6903C124.633 60.5729 123.095 62.0246 121.119 63.0455C119.157 64.053 116.87 64.5568 114.259 64.5568C111.872 64.5568 109.724 64.1326 107.815 63.2841C105.92 62.4223 104.415 61.1496 103.301 59.4659C102.188 57.7822 101.631 55.6875 101.631 53.1818H108.969C108.982 54.2822 109.221 55.2301 109.685 56.0256C110.162 56.821 110.818 57.4309 111.653 57.8551C112.489 58.2794 113.45 58.4915 114.537 58.4915C115.717 58.4915 116.718 58.2462 117.54 57.7557C118.362 57.2519 118.985 56.5095 119.409 55.5284C119.847 54.5473 120.072 53.3409 120.085 51.9091V23.2727ZM148.413 64.5966C145.43 64.5966 142.845 63.9403 140.658 62.6278C138.47 61.3153 136.773 59.4792 135.567 57.1193C134.374 54.7595 133.777 52.0019 133.777 48.8466C133.777 45.6913 134.374 42.9271 135.567 40.554C136.773 38.1809 138.47 36.3381 140.658 35.0256C142.845 33.7131 145.43 33.0568 148.413 33.0568C151.396 33.0568 153.982 33.7131 156.169 35.0256C158.357 36.3381 160.047 38.1809 161.24 40.554C162.446 42.9271 163.05 45.6913 163.05 48.8466C163.05 52.0019 162.446 54.7595 161.24 57.1193C160.047 59.4792 158.357 61.3153 156.169 62.6278C153.982 63.9403 151.396 64.5966 148.413 64.5966ZM148.453 58.8295C150.071 58.8295 151.423 58.3854 152.51 57.4972C153.597 56.5956 154.406 55.3892 154.936 53.8778C155.48 52.3665 155.751 50.6828 155.751 48.8267C155.751 46.9574 155.48 45.267 154.936 43.7557C154.406 42.2311 153.597 41.018 152.51 40.1165C151.423 39.215 150.071 38.7642 148.453 38.7642C146.796 38.7642 145.417 39.215 144.317 40.1165C143.23 41.018 142.414 42.2311 141.871 43.7557C141.34 45.267 141.075 46.9574 141.075 48.8267C141.075 50.6828 141.34 52.3665 141.871 53.8778C142.414 55.3892 143.23 56.5956 144.317 57.4972C145.417 58.3854 146.796 58.8295 148.453 58.8295ZM169.478 64V23.2727H176.677V38.5057H176.975C177.346 37.7633 177.87 36.9744 178.546 36.1392C179.222 35.2907 180.137 34.5682 181.29 33.9716C182.444 33.3617 183.915 33.0568 185.705 33.0568C188.065 33.0568 190.193 33.66 192.089 34.8665C193.998 36.0597 195.509 37.8295 196.623 40.1761C197.75 42.5095 198.313 45.3731 198.313 48.767C198.313 52.1212 197.763 54.9716 196.663 57.3182C195.562 59.6648 194.064 61.4545 192.168 62.6875C190.272 63.9205 188.125 64.5369 185.725 64.5369C183.975 64.5369 182.523 64.2453 181.37 63.6619C180.217 63.0786 179.289 62.3759 178.586 61.554C177.897 60.7187 177.36 59.9299 176.975 59.1875H176.558V64H169.478ZM176.538 48.7273C176.538 50.7027 176.816 52.4328 177.373 53.9176C177.943 55.4025 178.758 56.5625 179.819 57.3977C180.893 58.2197 182.192 58.6307 183.717 58.6307C185.308 58.6307 186.64 58.2064 187.714 57.358C188.788 56.4962 189.596 55.3229 190.14 53.8381C190.697 52.34 190.975 50.6364 190.975 48.7273C190.975 46.8314 190.703 45.1477 190.16 43.6761C189.616 42.2045 188.808 41.0511 187.734 40.2159C186.66 39.3807 185.321 38.9631 183.717 38.9631C182.179 38.9631 180.873 39.3674 179.799 40.1761C178.725 40.9848 177.91 42.1184 177.353 43.5767C176.809 45.035 176.538 46.7519 176.538 48.7273ZM204.433 75.4545V33.4545H211.513V38.5057H211.93C212.302 37.7633 212.825 36.9744 213.501 36.1392C214.178 35.2907 215.092 34.5682 216.246 33.9716C217.399 33.3617 218.871 33.0568 220.661 33.0568C223.02 33.0568 225.148 33.66 227.044 34.8665C228.953 36.0597 230.464 37.8295 231.578 40.1761C232.705 42.5095 233.268 45.3731 233.268 48.767C233.268 52.1212 232.718 54.9716 231.618 57.3182C230.518 59.6648 229.019 61.4545 227.124 62.6875C225.228 63.9205 223.08 64.5369 220.68 64.5369C218.93 64.5369 217.479 64.2453 216.325 63.6619C215.172 63.0786 214.244 62.3759 213.541 61.554C212.852 60.7187 212.315 59.9299 211.93 59.1875H211.632V75.4545H204.433ZM211.493 48.7273C211.493 50.7027 211.771 52.4328 212.328 53.9176C212.898 55.4025 213.714 56.5625 214.774 57.3977C215.848 58.2197 217.147 58.6307 218.672 58.6307C220.263 58.6307 221.595 58.2064 222.669 57.358C223.743 56.4962 224.552 55.3229 225.095 53.8381C225.652 52.34 225.93 50.6364 225.93 48.7273C225.93 46.8314 225.659 45.1477 225.115 43.6761C224.571 42.2045 223.763 41.0511 222.689 40.2159C221.615 39.3807 220.276 38.9631 218.672 38.9631C217.134 38.9631 215.828 39.3674 214.754 40.1761C213.68 40.9848 212.865 42.1184 212.308 43.5767C211.765 45.035 211.493 46.7519 211.493 48.7273ZM239.433 64V33.4545H246.632V64H239.433ZM243.053 29.1193C241.912 29.1193 240.931 28.7415 240.109 27.9858C239.287 27.2169 238.876 26.2955 238.876 25.2216C238.876 24.1345 239.287 23.2131 240.109 22.4574C240.931 21.6884 241.912 21.304 243.053 21.304C244.206 21.304 245.187 21.6884 245.996 22.4574C246.818 23.2131 247.229 24.1345 247.229 25.2216C247.229 26.2955 246.818 27.2169 245.996 27.9858C245.187 28.7415 244.206 29.1193 243.053 29.1193ZM261.234 23.2727V64H254.035V23.2727H261.234ZM281.96 64.5966C278.977 64.5966 276.392 63.9403 274.205 62.6278C272.017 61.3153 270.32 59.4792 269.114 57.1193C267.92 54.7595 267.324 52.0019 267.324 48.8466C267.324 45.6913 267.92 42.9271 269.114 40.554C270.32 38.1809 272.017 36.3381 274.205 35.0256C276.392 33.7131 278.977 33.0568 281.96 33.0568C284.943 33.0568 287.528 33.7131 289.716 35.0256C291.903 36.3381 293.594 38.1809 294.787 40.554C295.993 42.9271 296.597 45.6913 296.597 48.8466C296.597 52.0019 295.993 54.7595 294.787 57.1193C293.594 59.4792 291.903 61.3153 289.716 62.6278C287.528 63.9403 284.943 64.5966 281.96 64.5966ZM282 58.8295C283.617 58.8295 284.97 58.3854 286.057 57.4972C287.144 56.5956 287.953 55.3892 288.483 53.8778C289.027 52.3665 289.298 50.6828 289.298 48.8267C289.298 46.9574 289.027 45.267 288.483 43.7557C287.953 42.2311 287.144 41.018 286.057 40.1165C284.97 39.215 283.617 38.7642 282 38.7642C280.343 38.7642 278.964 39.215 277.864 40.1165C276.777 41.018 275.961 42.2311 275.418 43.7557C274.887 45.267 274.622 46.9574 274.622 48.8267C274.622 50.6828 274.887 52.3665 275.418 53.8778C275.961 55.3892 276.777 56.5956 277.864 57.4972C278.964 58.3854 280.343 58.8295 282 58.8295ZM317.96 33.4545V39.0227H300.4V33.4545H317.96ZM304.735 26.1364H311.934V54.8125C311.934 55.7803 312.08 56.5227 312.371 57.0398C312.676 57.5436 313.074 57.8883 313.565 58.0739C314.055 58.2595 314.599 58.3523 315.195 58.3523C315.646 58.3523 316.057 58.3191 316.428 58.2528C316.813 58.1866 317.104 58.1269 317.303 58.0739L318.516 63.7017C318.132 63.8343 317.582 63.9801 316.866 64.1392C316.163 64.2983 315.301 64.3911 314.281 64.4176C312.478 64.4706 310.853 64.1989 309.408 63.6023C307.963 62.9924 306.817 62.0511 305.968 60.7784C305.133 59.5057 304.722 57.9148 304.735 56.0057V26.1364Z" fill="white"/>
<defs>
<clipPath id="clip0_3760_124237">
<rect width="88" height="88" fill="white"/>
</clipPath>
</defs>
</svg>
