<svg width="20" height="20" viewBox="0 0 20 20" fill="none" xmlns="http://www.w3.org/2000/svg">
<g clip-path="url(#clip0_3793_113534)">
<path fill-rule="evenodd" clip-rule="evenodd" d="M17.8262 3.43588C18.6828 3.66659 19.3583 4.34194 19.5889 5.19872C20.0174 6.76366 20.0009 10.0257 20.0009 10.0257C20.0009 10.0257 20.0009 13.271 19.5891 14.8361C19.3583 15.6928 18.683 16.3683 17.8262 16.5988C16.2611 17.0108 10.0009 17.0108 10.0009 17.0108C10.0009 17.0108 3.75706 17.0108 2.17565 16.5825C1.31887 16.3518 0.643521 15.6763 0.41281 14.8197C0.000976562 13.271 0.000976562 10.0092 0.000976562 10.0092C0.000976562 10.0092 0.000976562 6.76366 0.41281 5.19872C0.643369 4.3421 1.33535 3.65011 2.1755 3.41955C3.74058 3.00757 10.0008 3.00757 10.0008 3.00757C10.0008 3.00757 16.2611 3.00757 17.8262 3.43588ZM13.2134 10.0093L8.00757 13.0077V7.01099L13.2134 10.0093Z" fill="#767F8C"/>
</g>
<defs>
<clipPath id="clip0_3793_113534">
<rect width="20" height="20" fill="white" transform="translate(0.000976562)"/>
</clipPath>
</defs>
</svg>
